<svg width="1366" height="654" viewBox="0 0 1366 654" fill="none" xmlns="http://www.w3.org/2000/svg">
<g clip-path="url(#clip0_169_318)">
<path d="M727 328C-127.5 391.813 -65.0448 -343.964 -90.9999 -358C-223.079 -175.686 -312.162 789.491 -127.5 713C315.5 529.5 1134 990 1473 525C1701.35 211.784 1721.79 14.7615 1668.5 -42.4997C1615.21 -99.761 1309.5 284.5 727 328Z" fill="#FFFBF4"/>
<path d="M516.169 765.409C1363.3 636.547 1357.2 1374.94 1384.15 1386.96C1501.93 1195.09 1517.07 225.931 1338.78 316.297C911.085 533.081 59.8178 136.412 -242.693 625.936C-446.46 955.67 -451.802 1153.68 -394.298 1206.7C-336.794 1259.73 -61.3099 853.252 516.169 765.409Z" fill="#12799C"/>
</g>
<defs>
<clipPath id="clip0_169_318">
<rect width="1366" height="4922" fill="white" transform="translate(0 -4268)"/>
</clipPath>
</defs>
</svg>
