<svg width="24" height="28" viewBox="0 0 24 28" fill="none" xmlns="http://www.w3.org/2000/svg">
<path fill-rule="evenodd" clip-rule="evenodd" d="M5.33326 4H18.6667C19.5508 4 20.3986 4.35114 21.0237 4.97628C21.6489 5.60142 22 6.4492 22 7.33326V20.6667C22 21.5508 21.6489 22.3986 21.0237 23.0237C20.3986 23.6489 19.5508 24 18.6667 24H5.33326C4.4492 24 3.60142 23.6489 2.97628 23.0237C2.35114 22.3986 2 21.5508 2 20.6667V7.33326C2 6.4492 2.35114 5.60142 2.97628 4.97628C3.60142 4.35114 4.4492 4 5.33326 4ZM17.4159 9.82884C18.1062 9.82884 18.6659 9.26927 18.6659 8.57885C18.6659 7.88857 18.1062 7.32886 17.4159 7.32886C16.7255 7.32886 16.166 7.88857 16.166 8.57885C16.166 9.26927 16.7255 9.82884 17.4159 9.82884ZM8.4623 10.4669C9.40009 9.52922 10.6718 9.00244 11.9979 9.00244C13.3239 9.00244 14.5957 9.52922 15.5335 10.4669C16.4711 11.4046 16.9979 12.6764 16.9979 14.0024C16.9979 15.3284 16.4711 16.6002 15.5335 17.538C14.5957 18.4756 13.3239 19.0024 11.9979 19.0024C10.6718 19.0024 9.40009 18.4756 8.4623 17.538C7.52465 16.6002 6.99786 15.3284 6.99786 14.0024C6.99786 12.6764 7.52465 11.4046 8.4623 10.4669ZM9.64088 16.3593C10.266 16.9845 11.1138 17.3356 11.9979 17.3356C12.882 17.3356 13.7298 16.9845 14.3549 16.3593C14.98 15.7342 15.3312 14.8864 15.3312 14.0023C15.3312 13.1183 14.98 12.2705 14.3549 11.6454C13.7298 11.0202 12.882 10.6691 11.9979 10.6691C11.1138 10.6691 10.266 11.0202 9.64088 11.6454C9.01573 12.2705 8.66459 13.1183 8.66459 14.0023C8.66459 14.8864 9.01573 15.7342 9.64088 16.3593Z" fill="#25A1D9"/>
</svg>
