<svg width="88" height="82" viewBox="0 0 88 82" fill="none" xmlns="http://www.w3.org/2000/svg">
<g filter="url(#filter0_d_304_254)">
<path fill-rule="evenodd" clip-rule="evenodd" d="M64.7074 74.2724C62.003 77.7573 57.7742 80.0001 53.0216 80.0001C48.4441 80.0001 44.3526 77.9196 41.641 74.6527C38.9293 77.9196 34.8378 80.0001 30.2603 80.0001C23.4745 80.0001 17.7566 75.428 16.019 69.1964C15.8392 69.2028 15.6586 69.2061 15.4772 69.2061C7.31271 69.2061 0.694092 62.5875 0.694092 54.423C0.694092 46.2585 7.31271 39.6399 15.4772 39.6399C15.9114 39.6399 16.3412 39.6586 16.7659 39.6953C19.0768 34.545 24.2497 30.9578 30.2603 30.9578C32.9562 30.9578 35.4835 31.6794 37.6596 32.9399C39.8411 29.6256 43.5947 27.4379 47.8592 27.4379C52.9633 27.4379 57.3354 30.5717 59.1563 35.0202C60.1303 34.8183 61.1393 34.7121 62.173 34.7121C69.5968 34.7121 75.7425 40.1843 76.7965 47.315C81.6234 49.7482 84.9343 54.7494 84.9343 60.5239C84.9343 68.6884 78.3157 75.307 70.1512 75.307C68.2288 75.307 66.3922 74.9401 64.7074 74.2724Z" fill="#EFE4CE"/>
</g>
<path fill-rule="evenodd" clip-rule="evenodd" d="M56.7399 1.85384C56.9406 1.85384 57.1033 2.01652 57.1033 2.21721V20.2039C57.1033 20.4046 56.9406 20.5673 56.7399 20.5673C56.5392 20.5673 56.3765 20.4046 56.3765 20.2039V2.21721C56.3765 2.01652 56.5392 1.85384 56.7399 1.85384Z" fill="#B4B4B4"/>
<circle cx="56.7399" cy="22.7475" r="0.726736" fill="#B4B4B4"/>
<path fill-rule="evenodd" clip-rule="evenodd" d="M56.7399 24.9277C56.9406 24.9277 57.1033 25.0904 57.1033 25.2911V31.65C57.1033 31.8507 56.9406 32.0134 56.7399 32.0134C56.5392 32.0134 56.3765 31.8507 56.3765 31.65V25.2911C56.3765 25.0904 56.5392 24.9277 56.7399 24.9277Z" fill="#B4B4B4"/>
<path fill-rule="evenodd" clip-rule="evenodd" d="M66.751 3.33699C66.9517 3.33699 67.1144 3.49968 67.1144 3.70036V21.6871C67.1144 21.8878 66.9517 22.0504 66.751 22.0504C66.5503 22.0504 66.3876 21.8878 66.3876 21.6871V3.70036C66.3876 3.49968 66.5503 3.33699 66.751 3.33699Z" fill="#B4B4B4"/>
<circle cx="66.751" cy="24.2306" r="0.726736" fill="#B4B4B4"/>
<path d="M66.751 26.4109V33.4965" stroke="#B4B4B4" stroke-width="0.726736" stroke-linecap="round"/>
<circle cx="59.7062" cy="2.20988" r="0.726736" fill="#B4B4B4"/>
<path fill-rule="evenodd" clip-rule="evenodd" d="M59.7061 4.39009C59.9068 4.39009 60.0695 4.55277 60.0695 4.75346V27.2823C60.0695 27.483 59.9068 27.6456 59.7061 27.6456C59.5055 27.6456 59.3428 27.483 59.3428 27.2823V4.75346C59.3428 4.55277 59.5055 4.39009 59.7061 4.39009Z" fill="#B4B4B4"/>
<circle cx="76.3914" cy="2.58057" r="0.726736" fill="#B4B4B4"/>
<path fill-rule="evenodd" clip-rule="evenodd" d="M76.3914 4.76078C76.5921 4.76078 76.7548 4.92347 76.7548 5.12415V27.653C76.7548 27.8536 76.5921 28.0163 76.3914 28.0163C76.1907 28.0163 76.028 27.8536 76.028 27.653V5.12415C76.028 4.92347 76.1907 4.76078 76.3914 4.76078Z" fill="#B4B4B4"/>
<circle cx="69.7173" cy="0.726724" r="0.726736" fill="#B4B4B4"/>
<path fill-rule="evenodd" clip-rule="evenodd" d="M69.7173 2.90693C69.918 2.90693 70.0807 3.06962 70.0807 3.2703V25.7991C70.0807 25.9998 69.918 26.1625 69.7173 26.1625C69.5166 26.1625 69.3539 25.9998 69.3539 25.7991V3.2703C69.3539 3.06962 69.5166 2.90693 69.7173 2.90693Z" fill="#B4B4B4"/>
<path fill-rule="evenodd" clip-rule="evenodd" d="M63.0432 1.48314C63.2439 1.48314 63.4065 1.64583 63.4065 1.84651V12.9292C63.4065 13.1299 63.2439 13.2926 63.0432 13.2926C62.8425 13.2926 62.6798 13.1299 62.6798 12.9292V1.84651C62.6798 1.64583 62.8425 1.48314 63.0432 1.48314Z" fill="#B4B4B4"/>
<circle cx="63.0432" cy="15.4728" r="0.726736" fill="#B4B4B4"/>
<path fill-rule="evenodd" clip-rule="evenodd" d="M63.0432 17.653C63.2439 17.653 63.4065 17.8157 63.4065 18.0164V29.0991C63.4065 29.2998 63.2439 29.4625 63.0432 29.4625C62.8425 29.4625 62.6798 29.2998 62.6798 29.0991V18.0164C62.6798 17.8157 62.8425 17.653 63.0432 17.653Z" fill="#B4B4B4"/>
<path fill-rule="evenodd" clip-rule="evenodd" d="M79.7285 4.07863C79.9292 4.07863 80.0918 4.24132 80.0918 4.442V15.5247C80.0918 15.7254 79.9292 15.8881 79.7285 15.8881C79.5278 15.8881 79.3651 15.7254 79.3651 15.5247V4.442C79.3651 4.24132 79.5278 4.07863 79.7285 4.07863Z" fill="#B4B4B4"/>
<circle cx="79.7285" cy="18.0683" r="0.726736" fill="#B4B4B4"/>
<path fill-rule="evenodd" clip-rule="evenodd" d="M79.7285 20.2485C79.9292 20.2485 80.0918 20.4112 80.0918 20.6119V31.6946C80.0918 31.8953 79.9292 32.058 79.7285 32.058C79.5278 32.058 79.3651 31.8953 79.3651 31.6946V20.6119C79.3651 20.4112 79.5278 20.2485 79.7285 20.2485Z" fill="#B4B4B4"/>
<path fill-rule="evenodd" clip-rule="evenodd" d="M73.0543 2.96617C73.255 2.96617 73.4177 3.12886 73.4177 3.32954V14.4123C73.4177 14.6129 73.255 14.7756 73.0543 14.7756C72.8537 14.7756 72.691 14.6129 72.691 14.4123V3.32954C72.691 3.12886 72.8537 2.96617 73.0543 2.96617Z" fill="#B4B4B4"/>
<circle cx="73.0544" cy="16.9558" r="0.726736" fill="#B4B4B4"/>
<path fill-rule="evenodd" clip-rule="evenodd" d="M73.0543 19.136C73.255 19.136 73.4177 19.2987 73.4177 19.4994V30.5821C73.4177 30.7828 73.255 30.9455 73.0543 30.9455C72.8537 30.9455 72.691 30.7828 72.691 30.5821V19.4994C72.691 19.2987 72.8537 19.136 73.0543 19.136Z" fill="#B4B4B4"/>
<path d="M71.3782 34.5442C69.4282 34.9408 67.6034 35.804 66.06 37.06C65.9247 36.4432 65.7733 35.8535 65.611 35.2963C67.2566 34.1509 69.0865 33.2963 71.0211 32.7697C71.4431 32.6561 71.8651 32.5587 72.2871 32.4722C72.4169 32.299 72.5414 32.1259 72.655 31.9311C74.7758 28.5985 74.278 24.1675 73.9318 22.2469C72.0274 22.7555 67.8021 24.1838 65.6813 27.5164C64.8814 28.823 64.379 30.2896 64.2097 31.8121C63.0959 29.5827 61.3814 27.7089 59.2594 26.4019C57.539 25.3544 55.571 24.783 53.5571 24.7464C53.3493 24.7687 53.1577 24.8687 53.0206 25.0264C52.8835 25.1841 52.8111 25.3878 52.818 25.5966C52.8248 25.8054 52.9104 26.004 53.0575 26.1523C53.2046 26.3007 53.4024 26.3879 53.6112 26.3965C55.337 26.4503 57.0174 26.9619 58.4804 27.8789C61.4884 29.7076 63.4902 32.9158 64.4315 37.4333C62.3888 36.8329 60.2256 36.7708 58.1518 37.253C56.078 37.7351 54.1641 38.7452 52.5957 40.1851C51.0274 41.6249 49.8578 43.4458 49.2006 45.4709C48.5434 47.4961 48.4209 49.6567 48.8449 51.7432C50.2731 58.7277 59.016 72.3505 65.3675 71.052C67.4983 70.6198 69.4779 69.6346 71.1077 68.1955C71.2149 68.0999 71.3456 68.0346 71.4864 68.0061C71.6264 67.9684 71.7738 67.9684 71.9138 68.0061C73.9698 68.6897 76.1692 68.8222 78.2924 68.3902C84.6656 67.1134 87.3706 51.1534 85.9261 44.1689C85.2665 40.9671 83.3656 38.1569 80.6392 36.3532C77.9128 34.5494 74.5829 33.899 71.3782 34.5442ZM73.5423 38.1907C73.3552 38.1402 73.1917 38.0257 73.0803 37.8671C72.969 37.7085 72.9168 37.5159 72.9329 37.3228C72.949 37.1296 73.0323 36.9483 73.1684 36.8103C73.3045 36.6723 73.4846 36.5864 73.6775 36.5676C75.7917 36.7462 77.8145 37.5098 79.5191 38.773C81.2238 40.0362 82.5431 41.7492 83.3292 43.7199C83.3712 43.8213 83.3924 43.9301 83.3916 44.0399C83.3909 44.1497 83.3681 44.2582 83.3248 44.359C83.2814 44.4599 83.2183 44.551 83.1392 44.6271C83.06 44.7031 82.9664 44.7626 82.864 44.8019L82.7287 44.8452C82.5386 44.8828 82.3414 44.8524 82.1713 44.7595C82.0013 44.6666 81.8692 44.5169 81.7982 44.3366C81.1354 42.6472 80.0138 41.1766 78.5598 40.0907C77.1059 39.0047 75.3774 38.3466 73.5693 38.1907H73.5423ZM84.1732 48.0156C84.2441 49.4588 84.2097 50.9054 84.0704 52.3437C84.059 52.5241 83.9888 52.6958 83.8706 52.8326C83.7524 52.9693 83.5927 53.0637 83.4158 53.1011C83.335 53.1119 83.2531 53.1119 83.1723 53.1011C83.0647 53.0909 82.96 53.0596 82.8645 53.009C82.7689 52.9583 82.6843 52.8893 82.6154 52.8058C82.5466 52.7224 82.4949 52.6262 82.4632 52.5228C82.4316 52.4193 82.4207 52.3107 82.4312 52.203C82.5604 50.8401 82.5947 49.4698 82.5339 48.1021C82.5096 47.986 82.5106 47.866 82.537 47.7504C82.5634 47.6347 82.6145 47.5262 82.6868 47.4321C82.7591 47.3381 82.8509 47.2608 82.9559 47.2055C83.0608 47.1503 83.1765 47.1184 83.295 47.1121C83.4134 47.1058 83.5319 47.1252 83.6421 47.1689C83.7524 47.2127 83.8519 47.2798 83.9337 47.3656C84.0156 47.4514 84.078 47.5539 84.1165 47.6661C84.1551 47.7783 84.1689 47.8975 84.157 48.0156H84.1732Z" fill="#FF3B59"/>
<path d="M66.0601 37.0654C65.9302 36.4432 65.7787 35.8589 65.611 35.3017L64.2152 31.8175C63.1014 29.5881 61.3869 27.7143 59.2649 26.4074C57.5429 25.3589 55.573 24.7875 53.5572 24.7519C53.3492 24.7745 53.1576 24.875 53.0207 25.0332C52.8839 25.1914 52.812 25.3955 52.8196 25.6046C52.8271 25.8136 52.9135 26.012 53.0614 26.16C53.2093 26.3079 53.4077 26.3944 53.6167 26.402C55.3425 26.4557 57.0229 26.9673 58.4858 27.8843C61.4885 29.713 63.4903 32.9212 64.437 37.4387L66.0601 37.0654Z" fill="#912F22"/>
<path d="M65.6055 35.2962C67.2518 34.1519 69.0815 33.2974 71.0157 32.7697C71.4431 32.6561 71.8651 32.5587 72.2871 32.4721C72.4169 32.299 72.5414 32.1259 72.655 31.9311C74.7758 28.5985 74.278 24.1675 73.9264 22.2469C72.0436 22.7392 67.8129 24.1675 65.6975 27.5002C64.8977 28.8067 64.3952 30.2733 64.226 31.7959L65.6055 35.2962Z" fill="#00A479"/>
<defs>
<filter id="filter0_d_304_254" x="0.330724" y="26.3478" width="87.1472" height="55.4691" filterUnits="userSpaceOnUse" color-interpolation-filters="sRGB">
<feFlood flood-opacity="0" result="BackgroundImageFix"/>
<feColorMatrix in="SourceAlpha" type="matrix" values="0 0 0 0 0 0 0 0 0 0 0 0 0 0 0 0 0 0 127 0" result="hardAlpha"/>
<feOffset dx="1.0901" dy="0.363368"/>
<feGaussianBlur stdDeviation="0.726736"/>
<feComposite in2="hardAlpha" operator="out"/>
<feColorMatrix type="matrix" values="0 0 0 0 0 0 0 0 0 0 0 0 0 0 0 0 0 0 0.25 0"/>
<feBlend mode="normal" in2="BackgroundImageFix" result="effect1_dropShadow_304_254"/>
<feBlend mode="normal" in="SourceGraphic" in2="effect1_dropShadow_304_254" result="shape"/>
</filter>
</defs>
</svg>
