<svg xmlns="http://www.w3.org/2000/svg" xmlns:xlink="http://www.w3.org/1999/xlink" viewBox="0 0 1944.56 1389.73"><defs><style>.cls-1,.cls-20{fill:none;}.cls-2{fill:#12799c;}.cls-3{fill:#ff3b59;}.cls-4{fill:#e8ba67;}.cls-5{fill:#d8ad51;}.cls-6{fill:#bcbcbc;}.cls-7{fill:#f8d2c1;}.cls-8{clip-path:url(#clip-path);}.cls-9{fill:#dcf8f9;}.cls-10{clip-path:url(#clip-path-2);}.cls-11{fill:#0f5d72;}.cls-12{fill:#c3f4f4;}.cls-13{clip-path:url(#clip-path-3);}.cls-14{fill:#faa528;}.cls-15{fill:#00a479;}.cls-16{fill:#e648cf;}.cls-17{clip-path:url(#clip-path-4);}.cls-18{fill:#cbc3b8;}.cls-19{clip-path:url(#clip-path-5);}.cls-20{stroke:#edc3b9;stroke-miterlimit:10;stroke-width:0.5px;}.cls-21{clip-path:url(#clip-path-6);}.cls-22{fill:#fff;}.cls-23{fill:#3d3c3b;}.cls-24{opacity:0.19;}.cls-25{fill:#efe4ce;}.cls-26{fill:#4a4f15;}.cls-27{fill:#26231e;}.cls-28{clip-path:url(#clip-path-7);}.cls-29{fill:#edc3b9;}.cls-30{clip-path:url(#clip-path-8);}.cls-31{fill:#e8e1d9;}</style><clipPath id="clip-path" transform="translate(248.77 370.19)"><rect class="cls-1" width="1404.25" height="1021.39"/></clipPath><clipPath id="clip-path-2" transform="translate(248.77 370.19)"><path id="borrao" class="cls-2" d="M1000,779.53a227.56,227.56,0,0,0,28-.66c8.56-.72,18-1.57,21-1.85,245.61-23.36,216.84-246.89,402.14-318.24,189.35-72.91,126.55-137.89,20.68-213.64-55.66-39.82,31.15-88.85-22.46-158.56s-104.7,58.74-139.41,24C1131.41-68,1084.6,70.1,1077.27,98.23c-1.32,5.06-.24,11.78-4.3,15.07-62.6,50.65-175.16,84.32-263.92,20.77C735.4,81.34,574.62,163.18,620.88,251.4c65.08,124.1-127.19,75.29-98.29,206,23.61,106.82,122.61,63.74,131.1,138.71,2.41,21.27-2.37,42.66-12.72,61.4-14.24,25.8-14.82,105.7,86.88,111.8Z"/></clipPath><clipPath id="clip-path-3" transform="translate(248.77 370.19)"><polyline class="cls-3" points="713.91 410.93 710.88 417.23 758.56 427.9 750.25 410.93 713.91 410.93"/></clipPath><clipPath id="clip-path-4" transform="translate(248.77 370.19)"><path class="cls-4" d="M944.55,709.75c-15.32,3.58-127.74,24.71-143.77,73.34S755.86,970,755.86,970l11.64,2.91c20.49-60.84,20.32-59.52,42.75-106.37s18.08-61.58,19.76-68.27c18.8-7.16,23.58-6.18,37.33-14.34h47.08l37.79-48.37Z"/></clipPath><clipPath id="clip-path-5" transform="translate(248.77 370.19)"><path class="cls-5" d="M965.5,738.85s2.74,29.56-18.9,42.38c-20.68,12.26-40.34,41.37-75.83,66.13,0,6.9,12.68,23.07,2.3,74s-7.66,13.11-12.77,77.11h-12s-8.42-104.69-4.68-155.75S902,737.5,937.4,726.61L955,709Z"/></clipPath><clipPath id="clip-path-6" transform="translate(248.77 370.19)"><path class="cls-6" d="M771.16,475.89c0,13.45,35.39,81.25,55.09,87.3s73.23-19.4,73.23-19.4,18.72-8.85,26.65,11.54c0,0,6.24,13-9.52,18.83,0,0-87.09,24.88-102.7,14.15-28.85-19.83-45.62-81-56.43-107Z"/></clipPath><clipPath id="clip-path-7" transform="translate(248.77 370.19)"><path class="cls-7" d="M941.59,537.67S953,524.56,953,518.44c0,0-50.42,1-16.83-33.37,14.18-14.49-18.15-37.78,26-49,27.41-7,54.13,17.19,41.36,59.07s-33.89,53.66-33.89,53.66L950.18,548l-.76-.21L939.15,544Z"/></clipPath><clipPath id="clip-path-8" transform="translate(248.77 370.19)"><path class="cls-6" d="M1049.86,721.24c2-15-7.44-62.21-15.27-81.27s-47.32-39-47.32-39-18.72-8.85-8-27.92c0,0,6.13-13.11,20.59-4.59,0,0,46.47,44.76,52.77,62.64s11.87,58.46,8.8,90.12Z"/></clipPath></defs><g id="Camada_2" data-name="Camada 2"><g id="Camada_22" data-name="Camada 22"><g class="cls-8"><polygon class="cls-9" points="959.91 787.34 232.49 367.39 1871.74 367.39 1871.74 1149.8 1034.95 1141.6 959.91 787.34"/><path id="borrao-2" data-name="borrao" class="cls-2" d="M1000,779.53a227.56,227.56,0,0,0,28-.66c8.56-.72,18-1.57,21-1.85,245.61-23.36,216.84-246.89,402.14-318.24,189.35-72.91,126.55-137.89,20.68-213.64-55.66-39.82,31.15-88.85-22.46-158.56s-104.7,58.74-139.41,24C1131.41-68,1084.6,70.1,1077.27,98.23c-1.32,5.06-.24,11.78-4.3,15.07-62.6,50.65-175.16,84.32-263.92,20.77C735.4,81.34,574.62,163.18,620.88,251.4c65.08,124.1-127.19,75.29-98.29,206,23.61,106.82,122.61,63.74,131.1,138.71,2.41,21.27-2.37,42.66-12.72,61.4-14.24,25.8-14.82,105.7,86.88,111.8Z" transform="translate(248.77 370.19)"/><g class="cls-10"><path class="cls-11" d="M957.91,782.07s18.89-5.1,33.19-26.29,106.47-9.71,108.51-18.13-135.83-32.43-135.83-32.43-75.49-19.15-109.62-6.12-10.64,27.63-19.83,39.22-54,33.8-2.6,59.33S957.91,782.07,957.91,782.07Z" transform="translate(248.77 370.19)"/></g><rect class="cls-9" x="230.84" y="-417.73" width="7" height="1111.65" transform="translate(246.35 642.18) rotate(-60)"/><polygon class="cls-9" points="980.89 743.25 999.06 781.03 1017.23 818.82 980.89 818.82 944.55 818.82 962.72 781.03 980.89 743.25"/><polygon class="cls-12" points="1044.7 818.82 1017.23 818.82 980.89 743.25 1004.21 743.25 1044.7 818.82"/><polyline class="cls-3" points="962.68 781.12 959.65 787.42 1007.32 798.09 999.02 781.12 962.68 781.12"/><g class="cls-13"><rect class="cls-3" x="958.15" y="781.12" width="54.64" height="3.38"/><rect class="cls-14" x="958.15" y="784.5" width="54.64" height="3.38"/><rect class="cls-15" x="958.15" y="787.87" width="54.64" height="3.38"/><rect class="cls-2" x="958.15" y="791.25" width="54.64" height="3.38"/><rect class="cls-16" x="958.15" y="794.63" width="54.64" height="3.38"/></g><polygon class="cls-16" points="1944.56 419.87 1019.3 796.6 1017.66 793.64 1859.14 327.26 1944.56 419.87"/><polygon class="cls-2" points="1892.59 311.42 1017.66 793.64 1015.69 790.89 1796.94 229.42 1892.59 311.42"/><polygon class="cls-15" points="1835.04 219.24 1015.74 790.87 1013.49 788.35 1731.29 147.76 1835.04 219.24"/><polygon class="cls-14" points="1759.08 123.42 1013.56 788.42 1011.02 786.19 1647.56 64.79 1759.08 123.42"/><polygon class="cls-3" points="1682.77 46.63 1011.04 786.09 1008.28 784.13 1565.73 0 1682.77 46.63"/><polygon class="cls-12" points="1021.89 799.86 1010.9 776.99 998.67 776.99 1009.66 799.86 1021.89 799.86"/><path class="cls-4" d="M944.55,709.75c-15.32,3.58-127.74,24.71-143.77,73.34S755.86,970,755.86,970l11.64,2.91c20.49-60.84,20.32-59.52,42.75-106.37s18.08-61.58,19.76-68.27c18.8-7.16,23.58-6.18,37.33-14.34h47.08l37.79-48.37Z" transform="translate(248.77 370.19)"/><g class="cls-17"><path class="cls-18" d="M826.59,842.86c-35.41,0-39.15-24.17-41.53-24.17l-66.73,143L754.42,1002l60.25-50.91Z" transform="translate(248.77 370.19)"/></g><path class="cls-5" d="M965.5,738.85s2.74,29.56-18.9,42.38c-20.68,12.26-40.34,41.37-75.83,66.13,0,6.9,12.68,23.07,2.3,74s-7.66,13.11-12.77,77.11h-12s-8.42-104.69-4.68-155.75S902,737.5,937.4,726.61L955,709Z" transform="translate(248.77 370.19)"/><g class="cls-19"><path class="cls-18" d="M883.44,856.31c-36.43,10.72-42.21,0-42.21,0l-17.71,151.32,59.92,11.91Z" transform="translate(248.77 370.19)"/></g><path class="cls-7" d="M768.06,473.46s-1.38,6.56,1.46,8.1l-8.27,2.15c.38-.38-3.22-8.81-3.22-8.81Z" transform="translate(248.77 370.19)"/><path class="cls-7" d="M767.74,468.55c.58-8.91-3.83-13.22-3.83-13.72s-.23-6.78-.42-10.92-5-7.69-5.12,1.08-6.89,9.35-6.89,9.35l-.08.13c-.64-2.52-1.55-5-1.55-5,.9-2,2.53-6.6,2.53-8.67s-1.56-1.7-1.9-1.1-4.19,6.63-4.94,8.94a12.07,12.07,0,0,0,.28,6.6s0,.12.07.31h0c.13,1.23-.83,1.29-1.64.82s-5.3-2.87-5.3-2.87a12.52,12.52,0,0,1-5-4.39c-1.36-2.23-2.93-3.46-4-2.15s.63,2.7,1.52,4.52a30.26,30.26,0,0,0,3.15,3.74h0c-3.54-.69-7.34-5.5-7.34-5.5-3.92-4.29-4.39-.89-4.39-.89,0,2.68,8.17,9.2,9.32,10.13s12.61,3.58,12.61,3.58c.56.87,13.66,12.68,13.66,12.68l8.41.3C768.64,473.93,767.74,468.55,767.74,468.55Z" transform="translate(248.77 370.19)"/><path class="cls-20" d="M763.49,467.53c-1.49-7.49-11.59-10.7-11.59-10.7a45.92,45.92,0,0,0-2-7.34c.9-2,2.53-6.6,2.53-8.67s-1.56-1.7-1.9-1.1-4.19,6.63-4.94,8.94a12.07,12.07,0,0,0,.28,6.6s2,8.77,3.84,11.9" transform="translate(248.77 370.19)"/><path class="cls-20" d="M744.76,462.56a34.92,34.92,0,0,1-13.34-11.06c-.89-1.82-2.63-3.21-1.52-4.52s2.68-.08,4,2.15a12.52,12.52,0,0,0,5,4.39s4.5,2.41,5.3,2.87,1.77.41,1.64-.82" transform="translate(248.77 370.19)"/><path class="cls-20" d="M751.48,454.34s6.73-.57,6.89-9.35,4.93-5.23,5.12-1.08.42,10.42.42,10.92,4.41,4.81,3.83,13.72a16.53,16.53,0,0,1,0,5.15c-.17.76.22,3.49-.25,3.91l-7.08,2.62s-2-5-2.1-5.07c-1.17-1.06-13-11.78-13.56-12.6,0,0-11.45-2.64-12.61-3.58s-9.32-7.45-9.32-10.13c0,0,.47-3.4,4.39.89,0,0,3.8,4.81,7.34,5.5" transform="translate(248.77 370.19)"/><path class="cls-20" d="M756.65,451.32s3.52,2.53,3,10" transform="translate(248.77 370.19)"/><rect class="cls-9" x="976.49" y="815.55" width="8.31" height="3.27"/><polygon class="cls-9" points="1014.65 818.82 1011.67 808.46 1006.01 808.09 1005.65 818.82 1014.65 818.82"/><path class="cls-6" d="M771.16,475.89c0,13.45,35.39,81.25,55.09,87.3s73.23-19.4,73.23-19.4,18.72-8.85,26.65,11.54c0,0,6.24,13-9.52,18.83,0,0-87.09,24.88-102.7,14.15-28.85-19.83-45.62-81-56.43-107Z" transform="translate(248.77 370.19)"/><g class="cls-21"><polygon class="cls-22" points="1007.99 858.09 1022.67 852.26 1019.91 845.73 1005.65 851.37 1007.99 858.09"/></g><path class="cls-23" d="M756.36,967.62l5.56-6.93-6.66-1.79s-7.21,4.84-11.58,4.57-16-2.18-16.51,5.64,18.48,10.16,21.22,6.83c0,0,1-1.29,1.11-.61.42,2.63,5.37,5,11.78,4.8,5.58-.2,9.66-4.61,7.09-11.21C768.37,968.92,761.6,971.09,756.36,967.62Z" transform="translate(248.77 370.19)"/><path class="cls-23" d="M849.15,996l.19-8.73-5.25,3.32s-1.2,7.74-4.05,10.46-11.23,9.28-6.35,14.38,20.4-6,19.87-9.87c0,0-.23-1.46.28-1.11,2,1.33,6.61-.48,10.37-4.87,3.28-3.82,2.85-9.21-3.09-11.55C861.12,988.05,854.65,994.66,849.15,996Z" transform="translate(248.77 370.19)"/><polygon class="cls-6" points="1173.57 910.75 1186.18 907.39 1198.19 917.98 1198.95 918.19 1217.57 915.86 1201.47 985.13 1159.95 975.09 1173.57 910.75"/><g id="sombras" class="cls-24"><rect class="cls-25" x="928.74" y="555.84" width="19.02" height="0.5" transform="translate(224.68 1439.57) rotate(-58.73)"/><rect class="cls-25" x="924.93" y="548.53" width="19.02" height="0.5" transform="translate(229.11 1432.8) rotate(-58.73)"/><rect class="cls-25" x="945.02" y="563.97" width="19.02" height="0.5" transform="translate(595 1861.47) rotate(-87.32)"/><rect class="cls-25" x="951.16" y="559.12" width="19.02" height="0.5" transform="translate(605.7 1862.99) rotate(-87.32)"/><polygon class="cls-25" points="1182.87 951.38 1182.42 951.15 1195.43 925.32 1195.88 925.54 1182.87 951.38"/><rect class="cls-25" x="927.57" y="574.66" width="36.54" height="0.5" transform="translate(488.87 1797.79) rotate(-81.68)"/></g><g id="colete"><path class="cls-26" d="M977.06,543.93a56,56,0,0,1,18.29,9.18c6.57,4.82,7.15,9.75,7.15,9.75,0,31.15-17.87,53.45-17.87,53.45-17.87,49.78-19,128.93-19,128.93-31.79-15.57-61.28,2.17-61.28,2.17C906.5,738,920,727.24,920,727.24c-13-2.29-29,15.45-29,15.45,0-14.43,5.23-23.74,5.23-23.74,6.38-15.83,9.32-109.92,5.62-120-7.15-13.54-3.32-42.39-2-49.28,1-5.15,1.06-13.29,18-14a99.64,99.64,0,0,1,15.82.69,1.93,1.93,0,0,1,1.67,1.65c1,7.11-1.37,49.77-2.38,67.05C932.93,605.07,968.11,541.29,977.06,543.93Z" transform="translate(248.77 370.19)"/></g><ellipse class="cls-27" cx="931.24" cy="618.96" rx="3.46" ry="3.3" transform="translate(537.53 1904.32) rotate(-88.54)"/><ellipse class="cls-27" cx="927.33" cy="642.94" rx="4.06" ry="3.81" transform="translate(509.74 1923.79) rotate(-88.54)"/><ellipse class="cls-27" cx="924.77" cy="665.86" rx="4.23" ry="3.91" transform="matrix(0.03, -1, 1, 0.03, 484.34, 1943.56)"/><ellipse class="cls-27" cx="922.33" cy="689.65" rx="4.05" ry="3.71" transform="translate(458.18 1964.31) rotate(-88.54)"/><path class="cls-7" d="M941.59,537.67S953,524.56,953,518.44c0,0-50.42,1-16.83-33.37,14.18-14.49-18.15-37.78,26-49,27.41-7,54.13,17.19,41.36,59.07s-33.89,53.66-33.89,53.66L950.18,548l-.76-.21L939.15,544Z" transform="translate(248.77 370.19)"/><g class="cls-28"><path class="cls-29" d="M952.54,520.85c3.49.77,16.26-5.33,16.26-5.33-5.4,2-15.82,2.94-15.82,2.94l-.74,1Z" transform="translate(248.77 370.19)"/></g><path class="cls-29" d="M940.87,484.25c0,.27,2.28,2.41-5.69,2.62s-4.85-3-2.82-4.14,7-14.43,7-14.43l.56,2.94" transform="translate(248.77 370.19)"/><g id="gola"><polygon class="cls-22" points="1182 906.44 1190.59 901.86 1198.19 917.98 1195.41 927.92 1182 906.44"/><polygon class="cls-22" points="1198.93 918.2 1196.19 928.03 1227.32 918.38 1226.08 905.82 1198.93 918.2"/></g><path class="cls-7" d="M1049.17,726.28a16.16,16.16,0,0,0,.31,7.16c1.12,2.85,2.51,2.63,10,2.87,13.85.45,22,.36,23.26-1.45.78-1.1-.26-1.28-1-1.28a13.58,13.58,0,0,1-1.56-.08c-3.31-.36-12.14-1.5-15.3-2.38-4.59-1.28-3.47-9.87-3.47-9.87h-11.57Z" transform="translate(248.77 370.19)"/><path class="cls-7" d="M1078.92,733.42s3.89-1,4.12-1.87-18.74-1.61-18.74-1.61,7.44,4,7.66,4S1078.92,733.42,1078.92,733.42Z" transform="translate(248.77 370.19)"/><path class="cls-7" d="M1077.5,731.67s3.9-1,4.12-1.87-24.71-1.61-24.71-1.61,7.43,4,7.66,4Z" transform="translate(248.77 370.19)"/><path class="cls-7" d="M1073,730s3.89-1,4.12-1.87-26.06-1.61-26.06-1.61,7.44,4,7.66,4Z" transform="translate(248.77 370.19)"/><path class="cls-7" d="M1050.88,735.38s2.43,2.21,10.09,2.21-2.27-6.81-2.27-6.81Z" transform="translate(248.77 370.19)"/><path class="cls-7" d="M1059.29,737.44s7.41,2.11,10.61,2,2.95-2.08,1.95-2.06-10.7-2.1-11-2.1-1.78,2-1.78,2Z" transform="translate(248.77 370.19)"/><path class="cls-6" d="M1049.86,721.24c2-15-7.44-62.21-15.27-81.27s-47.32-39-47.32-39-18.72-8.85-8-27.92c0,0,6.13-13.11,20.59-4.59,0,0,46.47,44.76,52.77,62.64s11.87,58.46,8.8,90.12Z" transform="translate(248.77 370.19)"/><g class="cls-30"><polygon class="cls-22" points="1297.06 1084.35 1314.8 1084.35 1314.8 1095.56 1293.61 1095.56 1297.06 1084.35"/></g><path class="cls-29" d="M1061.39,727.46a3.68,3.68,0,0,1-4.14,1.55,10.64,10.64,0,0,0,4.14-1.55Z" transform="translate(248.77 370.19)"/><path class="cls-29" d="M1061.86,735.73a5.27,5.27,0,0,0,1.51,1.61,1.85,1.85,0,0,1-1.51-1.61Z" transform="translate(248.77 370.19)"/><path class="cls-29" d="M1075.49,729.15c-3.76.45-7.74.8-11.43-.26,3.75.38,7.68,0,11.43.26Z" transform="translate(248.77 370.19)"/><path class="cls-29" d="M1079,731.09c-4.75.34-9.67.67-14.33-.46,4.69.44,9.63.12,14.33.46Z" transform="translate(248.77 370.19)"/><path class="cls-29" d="M1078.72,733.52c-4.82.34-9.81.67-14.53-.46,4.75.45,9.76.12,14.53.46Z" transform="translate(248.77 370.19)"/><path class="cls-31" d="M1032.63,492.66a17.28,17.28,0,0,0-3.1-9.89,19.47,19.47,0,0,0-7.33-22.24,11,11,0,0,0,1.16-4.93,11.2,11.2,0,0,0-9.89-11.13,12.5,12.5,0,0,0,.32-2.82A12.84,12.84,0,0,0,995.45,430a8.52,8.52,0,0,0-14.38-7.33,10.47,10.47,0,0,0-17.53-1,10.47,10.47,0,0,0-15.49,7.06,7.54,7.54,0,0,0-7.52.78c-2.35,1.86-3.09,5.13-2.24,8.4,0,.22-.1.44-.14.66-2.44.84-4.15,2.77-4.15,5a4.57,4.57,0,0,0,.21,1.33,5.45,5.45,0,0,0-3.64,4.81c0,3,3.09,5.46,6.9,5.46a8.69,8.69,0,0,0,.89-.05,5,5,0,0,0,2.28,1.67,6,6,0,0,0,5.62-1.28,4.77,4.77,0,0,0,2.9,5.12,4.62,4.62,0,0,0,4.89-1.44,4.25,4.25,0,0,0,2.52,2.46,4.52,4.52,0,0,0,4.59-1.14,23.15,23.15,0,0,0,5.88,6.95,12.47,12.47,0,0,0,5.62,16.05A15,15,0,0,0,979,506.63a8.15,8.15,0,0,0,1.42,11,8.16,8.16,0,0,0-3.33,10.17,8.17,8.17,0,0,0-.13,15.56,8.3,8.3,0,0,0,7.66,11.49,8.69,8.69,0,0,0,.89,0v0a8.31,8.31,0,0,0,8.3,8.31h.06a13,13,0,1,0,23.53-10.51,12.94,12.94,0,0,0,2.57-14,13,13,0,0,0,3.38-8.78,13.52,13.52,0,0,0-.34-2.94,17.33,17.33,0,0,0,6.86-24.88A17.32,17.32,0,0,0,1032.63,492.66Z" transform="translate(248.77 370.19)"/></g></g></g></svg>