<svg width="92" height="100" viewBox="0 0 92 100" fill="none" xmlns="http://www.w3.org/2000/svg">
<g filter="url(#filter0_d_306_407)">
<path fill-rule="evenodd" clip-rule="evenodd" d="M65.164 92.2726C62.4596 95.7574 58.2308 98.0002 53.4781 98.0002C48.9007 98.0002 44.8091 95.9197 42.0975 92.6528C39.3859 95.9197 35.2943 98.0002 30.7169 98.0002C23.9311 98.0002 18.2132 93.4281 16.4755 87.1965C16.2957 87.2029 16.1151 87.2062 15.9337 87.2062C7.76925 87.2062 1.15063 80.5876 1.15063 72.4231C1.15063 64.2586 7.76925 57.64 15.9337 57.64C16.3679 57.64 16.7978 57.6587 17.2225 57.6954C19.5334 52.5451 24.7062 48.9579 30.7169 48.9579C33.4127 48.9579 35.94 49.6795 38.1161 50.9401C40.2977 47.6257 44.0512 45.438 48.3158 45.438C53.4198 45.438 57.7919 48.5718 59.6129 53.0203C60.5868 52.8184 61.5958 52.7123 62.6296 52.7123C70.0533 52.7123 76.199 58.1844 77.253 65.3151C82.08 67.7483 85.3908 72.7495 85.3908 78.524C85.3908 86.6885 78.7722 93.3071 70.6077 93.3071C68.6854 93.3071 66.8487 92.9402 65.164 92.2726Z" fill="#EFE4CE"/>
</g>
<path fill-rule="evenodd" clip-rule="evenodd" d="M56.8773 20.8539C57.078 20.8539 57.2407 21.0166 57.2407 21.2172V39.204C57.2407 39.4046 57.078 39.5673 56.8773 39.5673C56.6767 39.5673 56.514 39.4046 56.514 39.204V21.2172C56.514 21.0166 56.6767 20.8539 56.8773 20.8539Z" fill="#B4B4B4"/>
<circle cx="56.8774" cy="41.7475" r="0.726736" fill="#B4B4B4"/>
<path fill-rule="evenodd" clip-rule="evenodd" d="M56.8773 43.9277C57.078 43.9277 57.2407 44.0904 57.2407 44.2911V50.65C57.2407 50.8507 57.078 51.0134 56.8773 51.0134C56.6767 51.0134 56.514 50.8507 56.514 50.65V44.2911C56.514 44.0904 56.6767 43.9277 56.8773 43.9277Z" fill="#B4B4B4"/>
<path fill-rule="evenodd" clip-rule="evenodd" d="M66.8885 22.337C67.0891 22.337 67.2518 22.4997 67.2518 22.7004V40.6871C67.2518 40.8878 67.0891 41.0505 66.8885 41.0505C66.6878 41.0505 66.5251 40.8878 66.5251 40.6871V22.7004C66.5251 22.4997 66.6878 22.337 66.8885 22.337Z" fill="#B4B4B4"/>
<circle cx="66.8885" cy="43.2306" r="0.726736" fill="#B4B4B4"/>
<path d="M66.8885 45.4109V52.4966" stroke="#B4B4B4" stroke-width="0.726736" stroke-linecap="round"/>
<circle cx="59.8436" cy="21.2099" r="0.726736" fill="#B4B4B4"/>
<path fill-rule="evenodd" clip-rule="evenodd" d="M59.8436 23.3901C60.0443 23.3901 60.207 23.5528 60.207 23.7535V46.2823C60.207 46.483 60.0443 46.6457 59.8436 46.6457C59.6429 46.6457 59.4802 46.483 59.4802 46.2823V23.7535C59.4802 23.5528 59.6429 23.3901 59.8436 23.3901Z" fill="#B4B4B4"/>
<circle cx="76.5289" cy="21.5806" r="0.726736" fill="#B4B4B4"/>
<path fill-rule="evenodd" clip-rule="evenodd" d="M76.5288 23.7609C76.7295 23.7609 76.8922 23.9235 76.8922 24.1242V46.653C76.8922 46.8537 76.7295 47.0164 76.5288 47.0164C76.3282 47.0164 76.1655 46.8537 76.1655 46.653V24.1242C76.1655 23.9235 76.3282 23.7609 76.5288 23.7609Z" fill="#B4B4B4"/>
<circle cx="69.8548" cy="19.7267" r="0.726736" fill="#B4B4B4"/>
<path fill-rule="evenodd" clip-rule="evenodd" d="M69.8548 21.907C70.0554 21.907 70.2181 22.0697 70.2181 22.2704V44.7992C70.2181 44.9998 70.0554 45.1625 69.8548 45.1625C69.6541 45.1625 69.4914 44.9998 69.4914 44.7992V22.2704C69.4914 22.0697 69.6541 21.907 69.8548 21.907Z" fill="#B4B4B4"/>
<path fill-rule="evenodd" clip-rule="evenodd" d="M63.1806 20.4832C63.3813 20.4832 63.544 20.6458 63.544 20.8465V31.9292C63.544 32.1299 63.3813 32.2926 63.1806 32.2926C62.9799 32.2926 62.8173 32.1299 62.8173 31.9292V20.8465C62.8173 20.6458 62.9799 20.4832 63.1806 20.4832Z" fill="#B4B4B4"/>
<circle cx="63.1807" cy="34.4728" r="0.726736" fill="#B4B4B4"/>
<path fill-rule="evenodd" clip-rule="evenodd" d="M63.1806 36.6531C63.3813 36.6531 63.544 36.8158 63.544 37.0164V48.0992C63.544 48.2998 63.3813 48.4625 63.1806 48.4625C62.9799 48.4625 62.8173 48.2998 62.8173 48.0992V37.0164C62.8173 36.8158 62.9799 36.6531 63.1806 36.6531Z" fill="#B4B4B4"/>
<path fill-rule="evenodd" clip-rule="evenodd" d="M79.8659 23.0786C80.0666 23.0786 80.2293 23.2413 80.2293 23.442V34.5247C80.2293 34.7254 80.0666 34.8881 79.8659 34.8881C79.6652 34.8881 79.5026 34.7254 79.5026 34.5247V23.442C79.5026 23.2413 79.6652 23.0786 79.8659 23.0786Z" fill="#B4B4B4"/>
<circle cx="79.866" cy="37.0683" r="0.726736" fill="#B4B4B4"/>
<path fill-rule="evenodd" clip-rule="evenodd" d="M79.8659 39.2485C80.0666 39.2485 80.2293 39.4112 80.2293 39.6119V50.6946C80.2293 50.8953 80.0666 51.058 79.8659 51.058C79.6652 51.058 79.5026 50.8953 79.5026 50.6946V39.6119C79.5026 39.4112 79.6652 39.2485 79.8659 39.2485Z" fill="#B4B4B4"/>
<path fill-rule="evenodd" clip-rule="evenodd" d="M73.1918 21.9662C73.3925 21.9662 73.5552 22.1289 73.5552 22.3296V33.4123C73.5552 33.613 73.3925 33.7756 73.1918 33.7756C72.9911 33.7756 72.8284 33.613 72.8284 33.4123V22.3296C72.8284 22.1289 72.9911 21.9662 73.1918 21.9662Z" fill="#B4B4B4"/>
<circle cx="73.1918" cy="35.9559" r="0.726736" fill="#B4B4B4"/>
<path fill-rule="evenodd" clip-rule="evenodd" d="M73.1918 38.1361C73.3925 38.1361 73.5552 38.2988 73.5552 38.4995V49.5822C73.5552 49.7829 73.3925 49.9456 73.1918 49.9456C72.9911 49.9456 72.8284 49.7829 72.8284 49.5822V38.4995C72.8284 38.2988 72.9911 38.1361 73.1918 38.1361Z" fill="#B4B4B4"/>
<path d="M65.0965 55.1983C67.2301 54.8199 69.1297 54.4309 70.7415 54.0423C73.2217 53.4519 74.7625 52.9678 75.4604 52.5524C75.5642 52.4966 75.6566 52.4219 75.733 52.3321C75.5789 52.2377 74.7215 51.9072 70.4726 52.074C68.8512 52.1494 66.9863 52.2873 64.9895 52.4827C64.9877 53.7458 65.0537 54.6942 65.097 55.2017L65.0965 55.1983Z" fill="#FAA528"/>
<path d="M45.155 57.5681C46.4114 57.5211 47.8803 57.4135 49.4438 57.279C49.1519 56.4537 48.8091 55.6474 48.4172 54.8647C47.1337 55.1005 45.933 55.3585 44.8759 55.6013C40.8844 56.5538 40.0669 57.1001 39.907 57.3083C39.9388 57.3039 40.0293 57.3562 40.238 57.4188C41.0053 57.6242 42.6231 57.6742 45.156 57.5668L45.155 57.5681Z" fill="#FAA528"/>
<path d="M75.6188 54.8354C74.6399 55.234 73.2429 55.645 71.2387 56.1236C67.9421 56.9155 63.4776 57.7088 58.3115 58.4207C53.1239 59.1356 48.6033 59.5804 45.2391 59.7063C43.1761 59.7905 41.7131 59.7735 40.6662 59.6541C39.0431 64.3766 39.2771 69.5397 41.3206 74.096C43.3642 78.6523 47.0644 82.2607 51.6705 84.1893C51.8129 84.2491 51.9405 84.3394 52.0444 84.4537C52.1482 84.5681 52.2258 84.7037 52.2717 84.8512C52.3182 84.998 52.3325 85.1532 52.3137 85.306C52.2948 85.4589 52.2433 85.6059 52.1625 85.7371C52.0907 85.8513 52.0529 85.9838 52.0537 86.1187C52.0545 86.2537 52.0938 86.3857 52.167 86.4991C52.2402 86.6126 52.3442 86.7027 52.4669 86.7591C52.5896 86.8154 52.7258 86.8355 52.8595 86.8171L71.2314 84.2855C71.418 84.2595 71.5867 84.1606 71.7006 84.0106C71.8145 83.8605 71.8643 83.6715 71.8392 83.4847C71.8185 83.3203 71.738 83.1692 71.613 83.0603C71.4998 82.9556 71.4103 82.8279 71.3508 82.6856C71.2913 82.5433 71.2631 82.39 71.2681 82.2358C71.2722 82.0808 71.3102 81.9286 71.3797 81.7899C71.4491 81.6512 71.5482 81.5295 71.6699 81.4334C75.5832 78.3307 78.1694 73.8553 78.9039 68.9155C79.6383 63.9758 78.4659 58.9416 75.6245 54.8346L75.6188 54.8354Z" fill="#FAA528"/>
<path fill-rule="evenodd" clip-rule="evenodd" d="M57.796 19.5076C60.9336 -0.398395 83.6853 4.65879 82.0267 11.7405C80.4041 18.6635 68.312 13.7611 58.9428 20.0584C61.6458 16.0327 64.6348 13.6629 67.7188 12.41C68.888 13.1324 69.8193 13.3279 70.9957 13.3635C69.5592 12.9508 68.874 12.6532 68.5606 11.9898C70.3916 11.3709 72.2484 10.9901 73.8624 11.021C74.7771 11.7843 76.0394 12.2834 77.5023 12.3339C76.5232 12.0594 75.1465 11.5611 74.8957 10.9492C76.3438 10.8502 77.1977 10.8031 78.9413 11.0185C75.4048 9.96078 74.1636 10.0092 71.2772 10.1525C71.6555 9.03763 72.8206 8.51279 73.4611 8.05794C72.144 8.52046 70.8474 8.98015 70.0715 10.3661C68.5936 10.6854 66.2823 11.6203 64.9613 12.465C65.0249 11.3911 66.1083 10.3155 67.204 9.69845C65.2195 10.3189 64.2382 11.8673 63.3213 13.4716C61.3885 14.921 59.5279 16.8854 57.7926 19.508L57.796 19.5076Z" fill="#00A479"/>
<path fill-rule="evenodd" clip-rule="evenodd" d="M53.7721 30.1615C45.3631 11.8466 24.8306 22.8683 28.3438 29.2374C31.777 35.4625 42.0938 27.4733 52.8161 31.0033C49.126 27.8574 45.6052 26.3846 42.2983 26.0112C41.3683 27.0252 40.5244 27.4641 39.4026 27.8164C40.673 27.0319 41.2531 26.5588 41.3753 25.8342C39.4444 25.736 37.5534 25.8693 36.009 26.3354C35.3349 27.3176 34.256 28.1405 32.8601 28.585C33.7297 28.0558 34.919 27.2038 34.9962 26.5467C33.5741 26.8433 32.7391 27.0277 31.1201 27.7076C34.2352 25.7322 35.4454 25.4428 38.2622 24.8026C37.5976 23.8314 36.334 23.6412 35.5932 23.3767C36.9931 23.4648 38.3601 23.5574 39.4819 24.6819C40.991 24.5896 43.469 24.8645 44.9682 25.3206C44.6165 24.304 43.2825 23.5614 42.0609 23.2649C44.1393 23.3254 45.5036 24.5483 46.8194 25.8473C49.0732 26.7186 51.3948 28.1079 53.7745 30.1623L53.7721 30.1615Z" fill="#00A479"/>
<path fill-rule="evenodd" clip-rule="evenodd" d="M61.8042 52.4717C51.5829 35.6244 65.5322 24.203 49.9747 4.22378C60.4384 29.1237 50.7714 31.943 50.6883 54.7714C50.6938 54.8111 50.6891 54.8522 50.6889 54.8927L50.688 55.138C50.6886 55.7971 50.6969 56.4702 50.7137 57.1629C52.9221 56.9499 55.3577 56.6652 57.9113 56.3133C59.9779 56.0285 61.9584 55.7221 63.8 55.407C63.0506 54.4082 62.3863 53.4312 61.8042 52.4717Z" fill="#912F22"/>
<defs>
<filter id="filter0_d_306_407" x="0.787267" y="44.3479" width="87.1472" height="55.4691" filterUnits="userSpaceOnUse" color-interpolation-filters="sRGB">
<feFlood flood-opacity="0" result="BackgroundImageFix"/>
<feColorMatrix in="SourceAlpha" type="matrix" values="0 0 0 0 0 0 0 0 0 0 0 0 0 0 0 0 0 0 127 0" result="hardAlpha"/>
<feOffset dx="1.0901" dy="0.363368"/>
<feGaussianBlur stdDeviation="0.726736"/>
<feComposite in2="hardAlpha" operator="out"/>
<feColorMatrix type="matrix" values="0 0 0 0 0 0 0 0 0 0 0 0 0 0 0 0 0 0 0.25 0"/>
<feBlend mode="normal" in2="BackgroundImageFix" result="effect1_dropShadow_306_407"/>
<feBlend mode="normal" in="SourceGraphic" in2="effect1_dropShadow_306_407" result="shape"/>
</filter>
</defs>
</svg>
